<?xml version="1.0" encoding="UTF-8"?> <!-- Generator: Adobe Illustrator 25.3.1, SVG Export Plug-In . SVG Version: 6.00 Build 0) --> <svg xmlns="http://www.w3.org/2000/svg" xmlns:xlink="http://www.w3.org/1999/xlink" version="1.1" id="Live_trace" x="0px" y="0px" viewBox="0 0 648 432" style="enable-background:new 0 0 648 432;" xml:space="preserve"> <style type="text/css"> .st0{fill-rule:evenodd;clip-rule:evenodd;fill:#408079;} .st1{fill-rule:evenodd;clip-rule:evenodd;fill:#003159;} </style> <path class="st0" d="M499.51,233.17c2.41,11.28,2.56,23.27,9.6,29.28c9.74,8.31,27.34,8.99,38.16,16.56 c-0.88,3.46-1.8,6.12-3.36,9.6c-0.94,2.1-2.55,7.86-4.56,8.4c-1.65,0.45-4.92-1.22-7.44-2.16c-2.5-0.93-4.78-2.02-6.72-2.88 c-9.3-4.1-20.85-6.23-31.68-2.4c-14.09,4.99-25.73,12.02-35.76,21.84c-6.72,6.58-12.28,13.24-18.48,19.68 c-3,3.12-5.71,6.8-8.88,10.32c-2.98,3.31-6.26,6.52-9.36,9.84c-6.13,6.56-12.32,14.13-20.16,18c-10.52,5.2-22.06,2.29-28.56-4.08 c-6.96-6.82-12.13-21.29-11.04-36c0.85-11.39,6.73-23.2,12.24-30.48c1.89-2.5,3.69-5.34,6.72-6.72c-3.28,4.64-6.87,9.57-9.6,15.36 c-3.86,8.2-10.01,23.28-3.84,34.08c3.21,5.63,9.99,9.13,19.2,8.4c13.48-1.08,22.43-10.73,30.48-18.24 c16.83-15.7,32.15-33.92,49.2-48.24c9.04-7.59,20.07-12.3,32.64-15.84c-5.39-15.6-8.14-37.07-11.28-56.4 c-4.12-25.39-8.1-51.96-11.52-78.48c-1.14-8.82-3-17.47-3.84-26.16c-1.27-13.1-4.13-26.47-5.76-39.36 c-0.57-4.54-1.34-14.51-1.34-14.51c0.88-3.98,4.5-14.5,6.25-20c0.95,1.9,2.39,5.98,3.25,8.75c4.25,13.75,7.14,35.02,9.84,54.8 c3.02,22.15,4.88,45.48,7.92,67.44c3.34,24.12,4.31,45.62,22.8,54.48c14.47,6.93,34.16,3.31,46.8-2.88c4-1.96,8.59-4.63,11.28-7.92 c1.37-1.67,3.32-4.43,2.64-7.92c-1.67-8.56-20.47-4.85-29.28-4.8c-15.62,0.08-28.01-4.29-27.36-19.92 c0.39-9.33,4.21-16.39,9.36-22.8c4.66-5.8,10.49-12.32,18.48-13.44c9.07-1.27,12.69,3.63,18.48,7.68 c9.34,11.11,16.47,24.28,17.52,43.2c0.67,12.17-2.03,22.75-6.24,30.72c-4.43,8.37-11.31,12.9-19.92,17.04 c-8.38,4.03-19.11,6.33-30.48,6.48C514.83,243.64,506.54,238.36,499.51,233.17z M541.27,160.21c-4.93,0.69-9.77,4.41-10.32,9.6 c1.55,1.75,4.33,2.19,6.96,2.4c7.55,0.6,16.96,0.66,24-0.24C557.79,167.29,551.17,158.82,541.27,160.21z"></path> <path class="st0" d="M572.71,99.49c-2.52,5.17-4.96,10.17-8.64,15.12c-0.67,0.9-2.83,3.72-3.84,3.84c-1.25,0.15-4.16-1.93-5.52-2.64 c-5.38-2.82-10.39-5.76-15.6-8.4c-4.78,4.82-6.65,12.55-10.8,18c-8.34-2.38-14.97-6.47-21.36-10.8c2.81-7.51,6.43-14.21,11.76-19.2 c6.55,3.45,12.51,7.49,19.68,10.32c4.17-5.99,7.42-12.9,12.72-17.76C558.26,91.86,565.55,95.61,572.71,99.49z"></path> <path class="st1" d="M470.47,162.85c0.16,0,0.32,0,0.48,0c-1.14,10.81-8.25,18.67-14.88,26.64c-3.06,3.68-6.14,7.92-9.12,12 c-3.08,4.22-6.31,8.74-7.44,13.44c-2.17,9.01,4.47,12.64,8.4,17.76c-5.92-1.68-10.22-1.88-14.4-4.56c-2.69-1.72-3.54-4.81-2.64-8.4 c1.36-5.43,6.2-11.52,9.6-16.32c1.18-1.67,3.21-3.96,3.36-5.28c0.18-1.65-1.27-4.73-1.92-6.72c-2.14-6.57-4.26-12.93-8.64-17.04 c-1.88,0.28-2.44,1.88-4.08,2.4c1.1-2.58,2.61-4.33,4.8-6.48c1.54-1.51,4.24-4.54,6.72-4.32c3.41,0.31,5.33,6.42,6.72,9.84 c1.67,4.12,3.18,8.07,4.32,12c4.75-4.21,7.63-10.29,10.08-16.8c0.25-1.21-0.55-1.37-0.48-2.4 C464.46,166.76,467.23,164.57,470.47,162.85z"></path> <g> <path class="st1" d="M258.31,114.13c-3.79-8.02-19.31-2.83-23.76,1.2c-3.4,3.08-6.54,9.11-9.12,14.88 c-5.1,11.41-7.88,23.72-11.28,36.72c-1.65,6.29-4.07,13.34-4.08,19.68c0,1.88,0.47,4.14,0.96,4.56c3.12,2.66,11.44-3.1,12.96-4.8 c3.58-4,5.19-9.23,6-15.36c3.07-2.77,7.1-4.59,11.28-6.24c-0.87,8.41-6.22,15.73-7.2,23.76c-0.29,2.41-0.45,4.82,1.2,6.24 c10.98,0.25,11.58-11,16.08-17.28c0.92-1.29,3.1-3.03,4.8-4.56c5.48-4.91,12.81-8.94,23.76-7.92c-2.84,11.3-3.92,24.15-8.88,34.56 c-4.15,8.71-12.25,18.46-20.64,22.8c-1.77,0.92-5.85,2.19-8.64,1.44c-2.04-0.55-4.72-2.86-6.24-4.32 c-2.68-2.58-5.05-5.71-6.24-9.36c6,3.31,14.02,9.68,23.28,6.24c11.18-4.15,13.79-18.13,15.84-31.44c-2.71,1.67-5.51,5.39-9.12,8.88 c-1.39,1.35-3.03,2.66-4.8,4.32c-1.71,1.6-3.75,3.57-5.76,3.36c-3.55-0.37-3.25-6.33-2.64-9.84c-1.24,0.34-2.39,1.74-4.08,2.88 c-2.74,1.85-13.61,8.85-17.04,6c-3.05-2.53-0.09-8.8,0.24-12.24c-5.3,1.88-11.56,8.53-17.04,11.04c-6.02,2.76-7.66-2.08-7.68-8.64 c-3.03,0.85-5.67,3.23-9.12,5.52c-2.55,1.69-6.92,5.09-10.08,4.32c-3.31-0.81-3.17-6.83-2.88-11.04 c-6.76,3.56-10.74,9.9-20.4,10.56c-4.91-2.39-5.21-10.6-5.04-17.28c-8.4,3.6-11.79,15.57-22.32,17.04 c-4.18-5.76-0.31-16.3,3.12-21.84c2.22-3.57,6.04-6.89,9.84-9.84c5.88-4.57,12.15-7.9,21.84-6c-1.57,6.86-5.24,19.91-0.96,26.64 c3.31,5.2,10.4,1.89,13.2-2.4c2.01-3.08,3.19-8.9,4.32-13.44c3.27-13.14,7.09-30.85,10.21-42.66c-3.44,1.5-5.28,3.38-5.4,2.58 c5.8-4.44,16.28-11.98,20.49-13.14c0.58,0.54-3.83,2.54-6.04,5.54c-3.76,8.52-5.31,18.86-7.73,29.92c-1.1,5.04-2.61,10.33-3.6,15.6 c-1.33,7.1-3.54,16.07,0.48,21.12c4.18-0.33,8.77-2.03,10.56-5.04c1.71-2.87,2.7-9.87,3.6-13.44c1.21-4.78,2.31-9.48,3.36-13.44 c2.24-8.45,3.95-17.97,7.44-26.16c4.98-11.69,14.89-18.75,25.44-24.96c3.43-2.02,7.68-4.92,13.2-5.52 C257.82,102.91,258.33,109.55,258.31,114.13z M144.07,171.01c-2.01,1.59-3.65,5.66-4.67,8.57c-1.19,3.4-1.8,6.7-1.33,10.15 c3.59,0.23,6.02-2,7.92-4.08c3.74-4.1,7.09-10.68,9.12-15.84C150.84,169.61,146.46,169.11,144.07,171.01z M258.79,173.65 c-2.62,1.81-4.56,9.25-4.8,12.72c-0.18,2.67,0.29,6.8,1.68,7.2c2.07,0.6,3.81-2.65,4.8-4.08c4-5.75,7.38-10.89,9.6-17.52 C265.82,172.33,261.76,171.6,258.79,173.65z"></path> <path class="st1" d="M421.27,121.57c0.52,1.52-2.19,2.8-3.12,4.08c-4.49,6.19-5.86,15.79-7.68,25.2 c-1.82,9.41-3.78,19.03-5.52,27.36c6.97-3.91,9.39-12.37,19.92-12.72c6.84,5.47-2.61,16.48-0.96,24c1.05,4.77,5.65,1.12,7.68-0.72 c1.8-1.63,3.24-3.37,4.8-3.84c-2.96,5.08-7.36,9.45-12.72,12.96c-1.54,1.01-4.48,2.59-6.24,2.16c-2.33-0.57-2.77-4.58-2.4-7.92 c0.6-5.39,5.75-13.89,1.44-18.72c-2.27-0.18-4.21,1.12-5.52,2.4c-4.47,4.39-7.99,10.42-9.84,17.28c-2.62,2.02-5.25,5.31-7.92,6.48 c4.06-22.26,7.8-44.84,13.68-65.28c-1.8,0.83-3.1,2.18-5.52,2.4c0.97-1.84,2.99-2.62,4.56-3.84c4.73-3.67,9.86-7.86,15.12-11.28 C421.11,121.57,421.19,121.57,421.27,121.57z"></path> <path class="st1" d="M266.95,129.01c2.81,7.12-2.81,10.94-6.96,14.4c-6.88,5.74-13.85,10.19-21.84,14.88 c-1.31,0.77-2.68,2.49-4.32,1.92c-0.16-0.97,1.15-1.57,1.68-1.92c5.54-3.64,11.34-6.92,16.56-11.28 c5.85-4.9,11.46-9.94,14.64-17.28C266.64,129.34,266.94,129.32,266.95,129.01z"></path> <path class="st1" d="M348.55,164.29c-3.26,5.36-10.01,31.28,4.32,29.28c3.09-0.43,4.66-2.62,7.44-3.84 c1.26-8.4,2.63-13.15,2.4-17.04c-3.45,0.47-5.28,2.56-7.92,3.84c-0.26-1.21,1.53-2.48,2.88-3.6c1.16-0.96,2.63-2.13,4.08-3.12 c2.26-1.54,8.04-4.89,10.32-3.84c3.61,1.67-0.33,8.67-0.48,11.76c3.17-1.76,5.67-4.52,8.64-6.96c3.43-2.82,6.4-6.36,12-6.72 c5.04,4.82-0.41,17.53-4.08,21.36c-2.34,2.44-5.32,4.55-7.92,6.96c-3.71,3.45-7.5,8.14-12.96,6.24 c-2.54,5.63-3.77,13.26-5.52,20.16c-0.57,2.26-1.07,5.06-1.92,6.48c-1.93,3.23-5.9,4.4-9.12,6.24c2.91-12.77,6.73-25.91,8.64-38.88 c-4.61,2.68-10.18,9.73-17.76,8.4c-5.41-0.95-7.37-7.55-6.96-14.88c-3.75,1.3-6.36,4.73-9.36,7.44c-3.02,2.73-6.34,5.15-10.8,6.24 c-0.93-1.58-1.61-2.46-1.44-5.04c0.5-7.36,3.97-13.42,9.6-18.96c5.17-5.09,10.3-10.47,16.32-12 C342.05,163.02,345.78,163.37,348.55,164.29z M327.19,174.61c-2.84,3.05-5.34,11.12-3.6,16.08c4.64-0.87,7.41-5.17,10.08-9.12 c1.92-2.84,3.64-6.45,3.6-10.32C333.01,171.19,329.48,172.15,327.19,174.61z M379.03,191.17c4-2.68,6.88-14.43,3.84-18.72 c-0.16,0-0.32,0-0.48,0c-6,5.04-11.98,10.1-13.2,19.92C372.75,192.41,376.46,192.89,379.03,191.17z"></path> <path class="st1" d="M321.43,165.25c1.06,7.15-3.88,10.35-7.68,13.44c-0.8-2.63-0.49-5.87-2.88-6.48c-4.7-1.2-9.34,6.7-11.28,9.84 c-3.17,5.12-4.94,9.92-6.48,14.4c-2.55,1.85-5.25,3.55-8.16,5.04c-0.02-9.7,7.43-18.32,4.08-29.04c-4.59,0.05-6.13,3.15-9.6,4.32 c1.03-2.53,4.07-4.2,6.72-6c3.59-2.44,6.9-5.05,12.72-5.28c2.22,1.85,1.38,7.12,0.72,10.08c3.06-1.46,5.96-3.42,9.12-5.52 C312.4,167.6,315.77,163.71,321.43,165.25z"></path> <path class="st1" d="M309.67,209.41c-0.91,2.29-3.36,3.04-4.8,4.8c-2.47,6.63-4.94,15.38-6.48,24.48 c-1.55,9.14-3.87,18.1-4.32,26.4c-0.21,3.81,0.92,9.12,4.08,9.6c1.79,0.27,4.52-1.01,6-1.92c4.69-2.89,8.08-8.8,12.48-13.2 c5.79-5.79,10.83-10.96,23.04-9.84c-4.33,7.97-3.51,23.9,5.04,26.16c1.97,0.52,4.84,0.16,6.72-0.72c2.4-1.12,6.19-4.72,7.2-6.72 c1.42-2.8,0.95-7.21,0.24-10.32c-4.58-1.73-7.54,3.02-11.04,3.12c1.3-2.26,4.15-4.45,6.96-6.48c4.16-3.01,8.89-7.17,14.64-3.84 c1.42,3.47,0.79,8.24-0.24,11.76c3.18-1.11,7.15-5.33,11.52-7.92c2.41-1.43,7.5-4.55,10.32-3.84c3.71,0.93,2.46,9.57,1.2,12.72 c6.43-3.36,11.77-11.77,20.88-12.72c4.71-0.49,7.12,2.98,9.62,5.65c2.06,2.2,3.73,3.97,5.34,5.58c4.16,4.18,7.87,8.13,11.68,10.37 c2.84,1.67,7.02,3.2,10.32,1.92c5.44-2.11,6.65-8.85,8.4-15.6c1.33,1.93,3.12,4.56,2.64,7.68c-0.57,3.71-6.31,6.86-8.64,8.64 c-4.56,3.48-11.06,8.64-18.48,5.76c-3.82-1.48-7.72-5.21-11.04-8.4c-4.75-4.57-9.17-11.07-14.4-13.44 c-5.02-2.27-9.87,2.45-12.48,5.52c-4.06,4.79-7.11,9.13-10.08,14.88c-3,1.48-5.73,4.5-8.88,5.04c1.34-3.6,2.4-7.62,3.6-12.24 c0.65-2.48,1.87-4.82,2.16-6.72c0.47-3.09-0.22-6.38-2.16-6.72c-1.96-0.34-4.67,2.34-6,3.6c-1.73,1.64-3.5,2.94-4.8,4.56 c-2.47,3.08-3.53,7.28-5.52,10.32c-2.01,3.07-6.58,4.88-9.6,6.96c0.67-4.53,2.32-8.08,3.36-12.24c-5.2,2.56-9.83,10.83-17.76,11.28 c-7.62,0.43-11.61-6.85-11.76-14.4c-6.7,3.78-10.76,12.27-19.68,14.64c-2.83-2.19-1.29-8.03-0.24-11.04 c-4.8,1.01-11.49,11.61-17.76,10.08c-3.68-0.9-4.25-5.54-5.04-9.84c-5.63,3.97-8.51,10.69-18.48,10.32 c-4.89-1.83-5.16-8.28-5.04-15.12c-2.36,0.74-3.43,3.11-5.04,4.8c-1.6,1.68-3.44,3.07-5.28,4.56c-3.47,2.8-7.15,6.67-12.24,6.48 c-1.58-2.08-1.48-4.69-1.2-6.96c0.85-6.75,5.11-13.79,10.08-18.48c6.43-6.08,14-10.06,25.2-9.12c-1.67,5.8-6.34,23.95,1.2,26.64 c3.72,1.33,5.85-0.85,7.68-3.12c1.11-1.38,2.73-2.62,3.12-4.08c1.85-6.83,2.61-15.49,4.08-23.76c1.47-8.28,2.72-16.49,4.56-23.04 c-2.14,0.58-3.1,2.34-5.28,2.88c2.45-3.22,6.24-5.19,9.6-7.68c3.52-2.6,6.87-5.54,10.32-7.92 C309.47,209.13,309.62,209.22,309.67,209.41z M247.51,270.61c-0.13,1.83-0.29,4.71,0.96,6c2.14,0.21,3.96-1.79,5.28-3.12 c4.44-4.49,7.55-10.86,9.36-17.52C253.34,254.58,248.12,262.12,247.51,270.61z M316.39,275.89c7.75-3.13,10.59-11.17,13.2-19.44 C317.47,254.27,314.64,266.32,316.39,275.89z"></path> <path class="st1" d="M218.95,279.97c6.84,5.07,14.13,11.17,21.84,17.52c7.34,6.04,14.51,13.07,25.2,14.16 c8.24,0.84,13.49-3.73,17.52-7.68c1.05-1.03,1.91-2.86,3.6-2.88c-3.15,5.26-8.43,8.85-14.64,12.24 c-5.42,2.96-10.82,6.23-18.24,5.52c-10.22-0.98-18.63-8.82-24.96-14.4c-4.74-4.18-10.29-9.31-16.08-13.44 c-1.91-1.37-4.54-3.52-6.24-3.6c-1.83-0.09-3.75,1.49-5.76,2.16c-21.92,7.36-35.86-12.16-31.2-32.16 c3.15-13.52,14.87-22.92,26.16-29.28c8.04-4.53,25.21-7.79,34.08-1.2c5.29,3.93,9.74,11.22,9.12,19.92 C238.3,261.52,227.91,273.22,218.95,279.97z M194.71,231.25c-6.76,3.12-13.06,13.81-14.4,22.32c-1.55,9.85,1.41,18.45,6.72,23.76 c5.43,5.43,15.84,8.45,24.96,3.84c5.3-2.68,10.58-8.07,13.2-13.68c8.06-17.26,0.34-37.73-18.24-37.92 C201.25,229.51,198.42,229.54,194.71,231.25z"></path> <path class="st1" d="M128.95,184.93c0.35,0.11-0.02,0.21,0,0.48c-4.23,5.32-9.7,9.01-15.84,12.24c-8.75,4.6-23.6,10.25-35.04,4.32 c-6.7-3.47-12.61-12.7-12.72-22.08c-0.11-9.06,3.61-16.84,7.68-23.28c3.83-6.06,9.65-11.96,15.36-15.6 c9.17-5.84,19.31-11.74,34.56-12c6.59-0.11,14.76-1.14,13.68,7.2c-0.61,4.7-3.33,8.71-5.52,12.96c-1.7,3.28-3.27,6.96-5.76,8.64 c2.67-6.32,4.87-18.43-2.16-21.12c-2.16-0.83-6.25-0.81-8.88-0.72c-13.77,0.49-21.45,3.69-27.6,11.28 c-5.57,6.87-10.59,17.79-9.6,28.08c1.17,12.21,10.24,22.79,24.48,21.84C112.8,196.42,122.43,190.94,128.95,184.93z"></path> </g> </svg> 